HIERARCHY
ROOT root
{
	OFFSET 0.000000 0.000000 0.000000
	CHANNELS 6 Xposition Yposition Zposition Zrotation Yrotation Xrotation
	JOINT lhip
	{
		OFFSET 0.058581 -0.082280 -0.017664
		CHANNELS 3 Zrotation Yrotation Xrotation
		JOINT lknee
		{
			OFFSET 0.043451 -0.386469 0.008037
			CHANNELS 3 Zrotation Yrotation Xrotation
			JOINT lankle
			{
				OFFSET -0.014790 -0.426874 -0.037428
				CHANNELS 3 Zrotation Yrotation Xrotation
				JOINT ltoe
				{
					OFFSET 0.041054 -0.060286 0.122042
					CHANNELS 3 Zrotation Yrotation Xrotation
					End Site
					{
						OFFSET 0.000000 0.000000 0.000000
					}
				}
			}
		}
	}
	JOINT rhip
	{
		OFFSET -0.060310 -0.090513 -0.013543
		CHANNELS 3 Zrotation Yrotation Xrotation
		JOINT rknee
		{
			OFFSET -0.043257 -0.383688 -0.004843
			CHANNELS 3 Zrotation Yrotation Xrotation
			JOINT rankle
			{
				OFFSET 0.019056 -0.420046 -0.034562
				CHANNELS 3 Zrotation Yrotation Xrotation
				JOINT rtoe
				{
					OFFSET -0.034840 -0.062106 0.130323
					CHANNELS 3 Zrotation Yrotation Xrotation
					End Site
					{
						OFFSET 0.000000 0.000000 0.000000
					}
				}
			}
		}
	}
	JOINT lowerback
	{
		OFFSET 0.004439 0.124404 -0.038385
		CHANNELS 3 Zrotation Yrotation Xrotation
		JOINT upperback
		{
			OFFSET 0.004488 0.137956 0.026820
			CHANNELS 3 Zrotation Yrotation Xrotation
			JOINT chest
			{
				OFFSET -0.002265 0.056032 0.002855
				CHANNELS 3 Zrotation Yrotation Xrotation
				JOINT lowerneck
				{
					OFFSET -0.013390 0.211636 -0.033468
					CHANNELS 3 Zrotation Yrotation Xrotation
					JOINT upperneck
					{
						OFFSET 0.010113 0.088937 0.050410
						CHANNELS 3 Zrotation Yrotation Xrotation
						End Site
						{
							OFFSET 0.000000 0.000000 0.000000
						}
					}
				}
				JOINT lclavicle
				{
					OFFSET 0.071702 0.114000 -0.018898
					CHANNELS 3 Zrotation Yrotation Xrotation
					JOINT lshoulder
					{
						OFFSET 0.122921 0.045205 -0.019046
						CHANNELS 3 Zrotation Yrotation Xrotation
						JOINT lelbow
						{
							OFFSET 0.255332 -0.015649 -0.022946
							CHANNELS 3 Zrotation Yrotation Xrotation
							JOINT lwrist
							{
								OFFSET 0.265709 0.012698 -0.007375
								CHANNELS 3 Zrotation Yrotation Xrotation
								End Site
								{
									OFFSET 0.000000 0.000000 0.000000
								}
							}
						}
					}
				}
				JOINT rclavicle
				{
					OFFSET -0.082954 0.112472 -0.023707
					CHANNELS 3 Zrotation Yrotation Xrotation
					JOINT rshoulder
					{
						OFFSET -0.113228 0.046853 -0.008472
						CHANNELS 3 Zrotation Yrotation Xrotation
						JOINT relbow
						{
							OFFSET -0.260127 -0.014369 -0.031269
							CHANNELS 3 Zrotation Yrotation Xrotation
							JOINT rwrist
							{
								OFFSET -0.269108 0.006794 -0.006027
								CHANNELS 3 Zrotation Yrotation Xrotation
								End Site
								{
									OFFSET 0.000000 0.000000 0.000000
								}
							}
						}
					}
				}
			}
		}
	}
}
MOTION
Frames: 10
Frame Time: 0.033333
0.384186 0.151223 1.010481 101.950623 0.773250 91.765710 5.938178 2.464395 -6.558417 -3.436910 -10.695010 10.855509 -2.176795 8.703226 -7.403934 0.000000 -0.000000 0.000000 -2.928064 -9.838880 2.285622 1.685849 -1.931770 4.197100 4.372707 -14.631844 -8.784671 0.000000 -0.000000 0.000000 -4.213701 7.464712 1.413461 -5.104863 0.990359 7.184826 -2.048032 4.382587 -3.660278 2.901776 -19.237532 1.486434 15.909786 -6.531627 -23.055907 -16.029194 -4.343577 -9.209381 -33.099650 -7.726447 15.974218 -1.389225 -76.533357 13.723829 -3.161528 -16.252911 -6.534747 0.410686 8.840713 -0.609091 1.046195 14.625613 -17.191129 -17.118739 45.854668 -4.075820 -4.065704 15.520023 14.895456 
0.380762 0.156270 1.008707 102.688237 1.002199 92.276756 5.889144 2.076882 -7.543063 -3.473565 -10.750853 11.137405 -2.023061 8.438904 -7.337631 0.000000 -0.000000 0.000000 -2.912145 -9.977697 1.711123 1.692133 -2.592126 4.118752 4.574138 -14.519693 -8.539798 0.000000 -0.000000 0.000000 -4.648020 7.927979 1.810460 -4.565604 1.361716 8.289065 -1.840042 4.525475 -3.945836 2.855144 -19.114456 1.076701 16.109355 -7.477674 -22.826808 -16.937516 -3.485015 -8.949780 -33.519611 -7.491757 16.333020 -2.211041 -75.819479 14.268006 -3.136558 -15.948893 -6.151433 2.958723 8.708112 0.284351 2.561487 13.904155 -15.702734 -16.811392 47.813574 -4.191024 -3.670708 15.686739 14.118051 
0.377527 0.161485 1.006757 103.356772 1.272006 92.787053 5.862356 1.745203 -8.455908 -3.477429 -10.823455 11.377655 -1.827932 8.241410 -7.256895 0.000000 -0.000000 0.000000 -2.872763 -10.083331 1.148332 1.711295 -3.227738 4.071007 4.722760 -14.448903 -8.317893 0.000000 -0.000000 0.000000 -4.958397 8.402731 2.270661 -4.068878 1.750521 9.166182 -1.563997 4.665480 -4.137112 2.806523 -18.996898 0.737147 16.211852 -8.536632 -23.004703 -17.652007 -2.874153 -8.684868 -34.012861 -7.076539 16.616403 -2.306083 -75.152277 14.056020 -3.088535 -15.552558 -5.564143 4.900142 8.803859 1.173260 4.217177 13.398504 -14.106009 -16.075470 49.497492 -3.703127 -3.612808 15.819286 13.575436 
0.374528 0.166936 1.004721 103.964565 1.589943 93.359690 5.914491 1.435749 -9.462679 -3.544372 -10.848919 11.752215 -1.632676 8.007846 -7.218613 0.000000 -0.000000 0.000000 -2.769193 -10.175170 0.501837 1.746692 -3.793332 4.097053 4.771077 -14.358608 -8.157731 0.000000 -0.000000 0.000000 -5.188560 8.962365 2.779520 -3.591942 2.209562 9.900353 -1.337858 4.793311 -4.400544 2.902650 -18.894917 0.317212 16.450092 -9.632907 -23.205543 -18.287962 -2.388463 -8.478135 -34.226555 -6.551939 16.996759 -2.513835 -74.771712 13.898353 -3.345713 -15.585220 -5.124333 6.692958 9.036344 1.932778 5.746233 12.808050 -12.388304 -15.501627 51.153478 -3.420371 -3.516840 15.898466 13.001762 
0.371758 0.172724 1.002979 104.673565 1.841441 93.943657 5.855990 1.045256 -10.550453 -3.617592 -10.834528 12.245517 -1.476375 7.831534 -7.165717 0.000000 -0.000000 0.000000 -2.677024 -10.248079 -0.197848 1.664701 -4.333359 4.234316 4.898952 -14.404785 -8.105273 0.000000 -0.000000 0.000000 -5.415046 9.539614 3.433710 -3.158820 2.642561 10.196762 -1.090736 4.908480 -4.531335 2.953479 -19.072426 -0.022184 16.871327 -10.675390 -23.345906 -18.807508 -1.885822 -8.250875 -34.568036 -6.233096 17.432691 -3.658944 -74.417578 14.856321 -3.344227 -15.450059 -5.321149 8.438781 9.154130 2.613091 7.007991 12.528499 -11.197377 -14.598597 52.694593 -3.113767 -3.043895 16.051169 11.546436 
0.369257 0.178645 1.001454 105.459968 2.104454 94.440099 5.936168 0.717994 -11.541343 -3.905686 -10.783747 12.755631 -1.432087 7.577200 -7.142176 0.000000 -0.000000 0.000000 -2.596235 -10.388290 -0.830291 1.599626 -4.840255 4.506370 4.950125 -14.458826 -8.072238 0.000000 -0.000000 0.000000 -5.416371 10.032845 4.147661 -2.827899 3.065480 10.352285 -0.827845 5.115365 -4.517763 3.176524 -19.097789 -0.522525 16.993694 -11.852399 -23.563023 -19.212305 -1.472602 -8.138307 -35.031578 -5.961222 18.009286 -4.038219 -73.856619 15.275777 -2.714715 -15.401666 -4.940489 9.782307 9.495981 3.290219 8.302400 12.181286 -10.015283 -14.632203 53.818304 -4.373365 -2.809972 15.763227 8.019593 
0.367337 0.184188 1.000220 106.117242 2.423916 94.747114 6.107263 0.730108 -12.217104 -4.245213 -10.999105 13.161073 -1.441511 7.312176 -7.073725 0.000000 -0.000000 0.000000 -2.517288 -10.554557 -1.309838 1.596588 -5.275683 4.912440 4.939168 -14.419097 -8.073175 0.000000 -0.000000 0.000000 -5.250501 10.431274 4.868463 -2.496120 3.629140 10.336569 -0.524278 5.377393 -4.330868 3.284176 -19.146278 -0.726204 17.037265 -12.881389 -23.923170 -19.630368 -1.090165 -8.069851 -35.439790 -5.658364 18.678959 -4.996169 -73.469448 15.851844 -2.263041 -15.103558 -5.181382 10.764928 10.082329 3.830324 9.235921 11.935489 -9.135980 -14.817356 54.324388 -7.656147 -1.391673 14.750435 1.779126 
0.365432 0.188843 0.999681 106.860680 2.565559 95.008730 6.066330 0.665238 -12.756011 -4.500082 -11.148733 13.390902 -1.427081 6.999930 -6.943990 0.000000 -0.000000 0.000000 -2.604488 -10.678436 -1.709765 1.649431 -5.700466 5.271310 4.913761 -14.532362 -8.020198 0.000000 -0.000000 0.000000 -4.624527 11.217722 5.849722 -2.553197 4.256853 10.513213 -0.557637 5.020924 -4.664901 3.758284 -19.213159 -0.914865 16.884863 -13.967308 -24.201968 -19.566849 -0.646349 -7.736270 -35.795276 -5.664746 19.133099 -6.494098 -72.735404 17.155581 -2.183292 -15.298270 -6.269556 11.665831 10.212869 4.093711 10.701095 12.636792 -8.606363 -16.174074 53.843677 -12.115390 0.239924 14.137179 -6.124839 
0.363359 0.192651 0.999178 107.556310 2.693657 95.213051 5.999109 0.561709 -13.229043 -4.669617 -11.289369 13.587767 -1.282427 6.741152 -6.706189 0.000000 -0.000000 0.000000 -2.643654 -10.845729 -2.035743 1.683943 -6.070209 5.531611 4.917540 -14.669539 -8.015679 0.000000 -0.000000 0.000000 -4.114040 11.610004 6.556777 -2.434246 4.677610 10.525146 -0.475377 5.224086 -4.484068 4.005967 -19.167074 -1.213073 16.826887 -15.053653 -24.472123 -19.738334 -0.404036 -7.883977 -36.094017 -5.537468 19.769207 -6.935215 -71.806256 17.063299 -2.848905 -15.641426 -7.053616 12.071313 10.792606 4.196821 12.022733 13.034596 -8.186195 -18.901863 52.987887 -18.417103 0.870309 13.167190 -12.208974 
0.361513 0.195974 0.998422 108.092274 2.839264 95.288565 5.863102 0.362083 -13.542693 -4.581670 -11.453014 13.826837 -1.196405 6.582547 -6.712471 0.000000 -0.000000 0.000000 -2.637180 -10.965870 -2.234740 1.623407 -6.456398 5.805482 5.016305 -14.659731 -8.154711 0.000000 -0.000000 0.000000 -3.982902 11.447848 6.942672 -1.974516 4.830873 10.172004 -0.097689 6.007465 -3.776504 3.904901 -19.339049 -0.987922 16.726409 -15.513664 -24.729630 -20.030314 0.065354 -8.308875 -36.817420 -5.096005 20.297427 -6.439563 -70.710639 16.465397 -3.126198 -15.884368 -7.453002 12.286801 11.410975 4.195861 12.350539 14.049292 -8.646817 -20.695399 51.342755 -22.712144 1.303359 12.833818 -15.820550 
